# AST/ASF file generated using VICON BodyLanguage
# -----------------------------------------------
:version 1.10
:name VICON
:units
  mass 1.0
  length 0.45
  angle deg
:documentation
   .ast/.asf automatically generated from VICON data using
   VICON BodyBuilder and BodyLanguage model FoxedUp or BRILLIANT.MOD
:root
   order TX TY TZ RX RY RZ
   axis XYZ
   position 0 0 0  
   orientation 0 0 0 
:bonedata
  begin
     id 1 
     name lhipjoint
     direction 0.630082 -0.636569 0.44472 
     length 2.82754 
     axis 0 0 0  XYZ
  end
  begin
     id 2 
     name lfemur
     direction 0.34202 -0.939693 0  
     length 7.26371  
     axis 0 0 20  XYZ
    dof rx ry rz
    limits (-160.0 20.0)
           (-70.0 70.0)
           (-60.0 70.0)
  end
  begin
     id 3 
     name ltibia
     direction 0.34202 -0.939693 0   
     length 7.88616   
     axis 0 0 20   XYZ
    dof rx
    limits (-10.0 170.0)
  end
  begin
     id 4 
     name lfoot
     direction 0.0603448 -0.165796 0.984312   
     length 1.77861   
     axis -90 7.62852e-016 20   XYZ
    dof rx rz
    limits (-45.0 90.0)
           (-70.0 20.0)
  end
  begin
     id 5 
     name ltoes
     direction 1.53577e-011 -4.21876e-011 1   
     length 0.902235   
     axis -90 7.62852e-016 20   XYZ
    dof rx
    limits (-90.0 20.0)
  end
  begin
     id 6 
     name rhipjoint
     direction -0.656778 -0.61817 0.431866   
     length 2.9117  
     axis 0 0 0  XYZ 
  end
  begin
     id 7 
     name rfemur
     direction -0.34202 -0.939693 0   
     length 6.81603   
     axis 0 0 -20   XYZ
    dof rx ry rz
    limits (-160.0 20.0)
           (-70.0 70.0)
           (-70.0 60.0)
  end
  begin
     id 8 
     name rtibia
     direction -0.34202 -0.939693 0   
     length 8.05997   
     axis 0 0 -20   XYZ
    dof rx
    limits (-10.0 170.0)
 end
 begin
     id 9 
     name rfoot
     direction -0.0862404 -0.236944 0.967688   
     length 1.84899  
     axis -90 -7.62852e-016 -20   XYZ
    dof rx rz
    limits (-45.0 90.0)
           (-20.0 70.0)
  end
  begin
     id 10 
     name rtoes
     direction -1.53561e-011 -4.21798e-011 1   
     length 0.931579   
     axis -90 -7.62852e-016 -20   XYZ
    dof rx
    limits (-90.0 20.0)
  end
  begin
     id 11 
     name lowerback
     direction -0.0110203 0.991769 -0.127564   
     length 2.05686   
     axis 0 0 0   XYZ
    dof rx ry rz
    limits (-20.0 45.0)
           (-30.0 30.0)
           (-30.0 30.0)
  end
  begin
     id 12 
     name upperback
     direction 0.0109719 0.99993 -0.00432479   
     length 2.06234   
     axis 0 0 0   XYZ
    dof rx ry rz
    limits (-20.0 45.0)
           (-30.0 30.0)
           (-30.0 30.0)
  end
  begin
     id 13 
     name thorax
     direction 0.0173308 0.998351 0.0547306   
     length 2.09856   
     axis 0 0 0   XYZ
    dof rx ry rz
    limits (-20.0 45.0)
           (-30.0 30.0)
           (-30.0 30.0)
  end
  begin
     id 14 
     name lowerneck
     direction -0.0311736 0.989033 0.144366   
     length 1.98151   
     axis 0 0 0   XYZ
    dof rx ry rz
    limits (-20.0 45.0)
           (-30.0 30.0)
           (-30.0 30.0)
  end
  begin
     id 15 
     name upperneck
     direction 0.0421057 0.975772 -0.214698   
     length 2.01457   
     axis 0 0 0   XYZ
    dof rx ry rz
    limits (-20.0 45.0)
           (-30.0 30.0)
           (-30.0 30.0)
  end
  begin
     id 16
     name head
     direction 0.0136911 0.995958 -0.0887718  
     length 2.03562  
     axis 0 0 0   XYZ
    dof rx ry rz
    limits (-20.0 45.0)
           (-30.0 30.0)
           (-30.0 30.0)
  end
  begin
     id 17 
     name lclavicle
     direction 0.915335 0.396201 0.0720134  
     length 4.16217  
     axis 0 0 0   XYZ
    dof ry rz
    limits (-20.0 10.0)
           (0.0 20.0)
  end
  begin
     id 18 
     name lhumerus
     direction 1 -4.48965e-011 6.383e-018   
     length 4.93042   
     axis -180 -30 -90   XYZ
    dof rx ry rz
    limits (-60.0 90.0)
           (-90.0 90.0)
           (-90.0 90.0)
  end
  begin
     id 19
     name lradius
     direction 1 -4.48972e-011 8.8689e-027   
     length 3.68177   
     axis -180 -30 -90   XYZ
    dof rx
    limits (-10.0 170.0)
  end
  begin
     id 20
     name lwrist
     direction 1 -4.48953e-011 1.17971e-026   
     length 1.84089   
     axis -7.69454e-015 90 90   XYZ
    dof ry
    limits (-180.0 0.0)
 end
  begin
     id 21 
     name lhand
     direction 1 -4.49027e-011 2.35802e-026   
     length 0.721479   
     axis -1.50533e-014 90 90   XYZ
    dof rx rz
    limits (-90.0 90.0)
           (-45.0 45.0)
  end
  begin
     id 22 
     name lfingers
     direction 1 -4.48915e-011 4.72027e-026   
     length 0.581675   
     axis -3.01059e-014 90 90   XYZ
    dof rx
    limits (0.0 90.0)
  end
  begin
     id 23
     name lthumb
     direction 0.707107 -6.34948e-011 0.707107   
     length 0.835172   
     axis -90 45 -5.12164e-014   XYZ
    dof rx rz
    limits (-45.0 45.0)
           (-45.0 45.0)
  end
  begin
     id 24 
     name rclavicle
     direction -0.882781 0.469197 0.0234974   
     length 3.95647  
     axis 0 0 0   XYZ 
    dof ry rz
    limits (-10.0 20.0)
           (-20.0 0.0)
  end
  begin
     id 25 
     name rhumerus
     direction -1 -4.48965e-011 -1.54906e-018  
     length 5.07905   
     axis -180 30 90   XYZ
    dof rx ry rz
    limits (-90.0 60.0)
           (-90.0 90.0)
           (-90.0 90.0)
  end
  begin
     id 26 
     name rradius
     direction -1 -4.48972e-011 5.47489e-027   
     length 3.54394   
     axis -180 30 90   XYZ
    dof rx
    limits (-10.0 170.0)
  end
  begin
     id 27 
     name rwrist
     direction -1 -4.48955e-011 1.17969e-026   
     length 1.77197   
     axis -7.69454e-015 -90 -90   XYZ
    dof ry
    limits (-180.0 0.0)
  end
  begin
     id 28
     name rhand
     direction -1 -4.48982e-011 2.35888e-026   
     length 0.681156   
     axis -1.50533e-014 -90 -90   XYZ
    dof rx rz
    limits (-90.0 90.0)
           (-45.0 45.0)
  end
  begin
     id 29
     name rfingers
     direction -1 -4.48955e-011 4.71877e-026   
     length 0.549165   
     axis -3.01059e-014 -90 -90   XYZ
    dof rx
    limits (0.0 90.0)
  end
  begin
     id 30
     name rthumb
     direction -0.707107 -6.3491e-011 0.707107   
     length 0.788495   
     axis -90 -45 5.12164e-014   XYZ
    dof rx rz
    limits (-45.0 45.0)
           (-45.0 45.0)
  end
:hierarchy
  begin
    root lhipjoint rhipjoint lowerback
    lhipjoint lfemur
    lfemur ltibia
    ltibia lfoot
    lfoot ltoes
    rhipjoint rfemur
    rfemur rtibia
    rtibia rfoot
    rfoot rtoes
    lowerback upperback
    upperback thorax
    thorax lowerneck lclavicle rclavicle
    lowerneck upperneck
    upperneck head
    lclavicle lhumerus
    lhumerus lradius
    lradius lwrist
    lwrist lhand lthumb
    lhand lfingers
    rclavicle rhumerus
    rhumerus rradius
    rradius rwrist
    rwrist rhand rthumb
    rhand rfingers
  end

#!OML:ASF H:\Bending\Project 1\Capture day 1\Session 1\Subject.ASF
:FULLY-SPECIFIED
:DEGREES
128
root -11.9055 18.0502 -16.2572 -168.163 81.661 -189.086
lowerback 34.6045 -1.80855 2.65589
upperback 7.02385 -0.305338 1.17522
thorax -9.78564 0.162819 -0.109615
lowerneck -19.7505 -4.75943 -9.71773
upperneck 13.395 -5.4622 9.43926
head 7.913 -2.19418 4.05526
rclavicle -4.37326e-015 1.59028e-015
rhumerus -0.416581 29.5551 -76.5971
rradius 55.3245
rwrist -1.32742
rhand -34.8489 -33.7526
rfingers 7.12502
rthumb -7.99898 -63.5813
lclavicle -4.37326e-015 1.59028e-015
lhumerus 2.773 -36.425 85.952
lradius 59.4793
lwrist 30.209
lhand -39.8439 27.9674
lfingers 7.12502
lthumb -12.8173 57.5539
rfemur -35.1671 -13.6234 17.9377
rtibia 29.2866
rfoot -13.0355 -11.395
rtoes -2.37394
lfemur -39.2366 -3.77643 -11.4469
ltibia 30.894
lfoot -11.0487 -3.63389
ltoes 17.935
129
root -11.8551 18.0689 -16.2814 -169.537 81.9538 -189.944
lowerback 33.3434 -1.52633 2.45541
upperback 6.54714 -0.147506 1.21538
thorax -9.83171 0.200479 -0.0234619
lowerneck -20.7606 -4.80948 -9.72615
upperneck 14.4627 -5.4498 9.16776
head 8.4327 -2.1862 3.97185
rclavicle 1.23246e-014 1.39149e-014
rhumerus -3.08836 30.8087 -77.0055
rradius 56.7007
rwrist -1.39978
rhand -34.9773 -34.4716
rfingers 7.12502
rthumb -8.12288 -64.2954
lclavicle 1.23246e-014 1.39149e-014
lhumerus 0.0707199 -36.7881 87.3878
lradius 61.0807
lwrist 29.7061
lhand -39.7707 28.2878
lfingers 7.12502
lthumb -12.7468 57.8787
rfemur -33.8715 -13.1877 17.4819
rtibia 28.3858
rfoot -12.8969 -11.5837
rtoes -2.18883
lfemur -38.0345 -3.81861 -11.6685
ltibia 30.2826
lfoot -11.125 -3.51059
ltoes 18.0525
130
root -11.7996 18.0882 -16.3064 -170.559 82.2735 -190.441
lowerback 32.0307 -1.25309 2.30848
upperback 6.06151 0.0246331 1.24798
thorax -9.84904 0.245766 0.0241104
lowerneck -21.7396 -4.84834 -9.62853
upperneck 15.6691 -5.43932 8.80667
head 8.99655 -2.18564 3.84202
rclavicle 1.98785e-015 -3.81667e-014
rhumerus -5.81666 31.9014 -77.6415
rradius 58.1278
rwrist -1.60522
rhand -35.1208 -35.3075
rfingers 7.12502
rthumb -8.26135 -65.126
lclavicle 1.98785e-015 -3.81667e-014
lhumerus -2.59026 -37.1105 88.721
lradius 62.6845
lwrist 29.4123
lhand -39.6207 28.419
lfingers 7.12502
lthumb -12.6021 58.0189
rfemur -32.4734 -12.6158 17.0591
rtibia 27.3428
rfoot -12.7219 -11.8475
rtoes -1.84484
lfemur -36.7839 -3.93469 -11.7927
ltibia 29.6367
lfoot -11.2549 -3.27702
ltoes 17.7844
131
root -11.7338 18.111 -16.3208 -170.776 82.7708 -190.077
lowerback 30.4992 -0.867176 2.01264
upperback 5.98351 0.299489 1.31542
thorax -10.0183 0.351495 0.169727
lowerneck -22.6547 -4.87415 -9.43021
upperneck 16.9673 -5.43253 8.38187
head 9.58677 -2.19151 3.67388
rclavicle 3.77691e-014 4.81059e-014
rhumerus -8.63513 32.8419 -78.4909
rradius 59.6712
rwrist -1.8108
rhand -35.3046 -36.115
rfingers 7.12502
rthumb -8.43873 -65.9264
lclavicle 3.77691e-014 4.81059e-014
lhumerus -5.18061 -37.4023 89.944
lradius 64.2564
lwrist 29.2574
lhand -39.3926 28.397
lfingers 7.12502
lthumb -12.3822 58.0103
rfemur -30.899 -11.6752 16.738
rtibia 26.1224
rfoot -12.516 -12.2634
rtoes -1.43138
lfemur -35.3697 -3.86215 -11.7903
ltibia 28.9599
lfoot -11.4445 -3.05011
ltoes 17.2529
132
root -11.6595 18.1343 -16.3355 -170.544 83.1647 -189.11
lowerback 29.3566 -0.562019 1.79402
upperback 5.48881 0.538165 1.42601
thorax -10.023 0.440015 0.33694
lowerneck -23.5428 -4.89605 -9.18609
upperneck 18.3325 -5.42267 7.90722
head 10.205 -2.20156 3.4807
rclavicle -1.98785e-015 -7.55382e-015
rhumerus -11.5623 33.6301 -79.5149
rradius 61.353
rwrist -1.84513
rhand -35.5986 -36.746
rfingers 7.12502
rthumb -8.7225 -66.5457
lclavicle -1.98785e-015 -7.55382e-015
lhumerus -7.66428 -37.6559 91.1202
lradius 65.756
lwrist 29.0799
lhand -39.1306 28.2895
lfingers 7.12502
lthumb -12.1296 57.9179
rfemur -29.0054 -10.7303 16.4678
rtibia 24.7287
rfoot -12.2941 -12.7609
rtoes -1.09672
lfemur -33.7729 -3.89249 -11.7247
ltibia 28.27
lfoot -11.6647 -2.82588
ltoes 16.6349
133
root -11.5778 18.1556 -16.3521 -170.011 83.4137 -187.691
lowerback 28.3976 -0.487072 1.78716
upperback 5.1522 0.56699 1.46063
thorax -9.92796 0.435133 0.373291
lowerneck -24.8492 -4.88238 -8.87749
upperneck 19.7655 -5.36978 7.51442
head 10.9348 -2.17139 3.31129
rclavicle 2.3059e-014 2.54444e-014
rhumerus -14.9145 34.2718 -80.8105
rradius 63.7789
rwrist -1.4961
rhand -36.0938 -37.1136
rfingers 7.12502
rthumb -9.20035 -66.8929
lclavicle 2.3059e-014 2.54444e-014
lhumerus -9.6216 -37.7826 91.787
lradius 67.1532
lwrist 28.7378
lhand -38.9073 28.1724
lfingers 7.12502
lthumb -11.9143 57.8134
rfemur -26.8067 -9.85002 16.239
rtibia 23.1806
rfoot -12.052 -13.3164
rtoes -0.899353
lfemur -32.0172 -4.0576 -11.6284
ltibia 27.5777
lfoot -11.901 -2.61497
ltoes 16.1239
134
root -11.4916 18.1728 -16.3689 -169.218 83.5915 -185.971
lowerback 27.2441 -0.4364 1.83829
upperback 4.7977 0.57754 1.51926
thorax -9.74682 0.42029 0.410009
lowerneck -25.4351 -4.86419 -8.69498
upperneck 20.881 -5.34191 7.25795
head 11.4425 -2.16093 3.20734
rclavicle -3.97569e-015 -1.59028e-014
rhumerus -17.7956 34.8801 -82.0815
rradius 65.745
rwrist -1.1425
rhand -36.8048 -37.3193
rfingers 7.12502
rthumb -9.88637 -67.0671
lclavicle -3.97569e-015 -1.59028e-014
lhumerus -11.6862 -38.0113 92.5922
lradius 68.4507
lwrist 28.0865
lhand -38.7917 28.0941
lfingers 7.12502
lthumb -11.8028 57.7415
rfemur -24.4925 -8.98483 16.0628
rtibia 21.5351
rfoot -11.7759 -13.9129
rtoes -0.809499
lfemur -30.2328 -4.29036 -11.511
ltibia 26.9035
lfoot -12.1521 -2.40457
ltoes 15.8635
135
root -11.4022 18.1849 -16.3854 -168.454 83.7072 -184.266
lowerback 25.9764 -0.398949 1.89527
upperback 4.42027 0.570603 1.59675
thorax -9.52326 0.397473 0.470071
lowerneck -25.4866 -4.86573 -8.63821
upperneck 21.7212 -5.35882 7.1387
head 11.7683 -2.17333 3.16598
rclavicle -6.75868e-015 9.14409e-015
rhumerus -20.2092 35.4501 -83.2621
rradius 67.3295
rwrist -0.807267
rhand -37.6557 -37.4969
rfingers 7.12502
rthumb -10.7072 -67.2041
lclavicle -6.75868e-015 9.14409e-015
lhumerus -13.8042 -38.3256 93.5092
lradius 69.651
lwrist 27.1318
lhand -38.8155 28.0821
lfingers 7.12502
lthumb -11.8257 57.7282
rfemur -22.1204 -8.13318 15.9112
rtibia 19.837
rfoot -11.4848 -14.549
rtoes -0.729712
lfemur -28.4559 -4.61891 -11.3956
ltibia 26.2624
lfoot -12.436 -2.17452
ltoes 15.8955
136
root -11.3116 18.1921 -16.4008 -167.867 83.7987 -182.781
lowerback 24.6779 -0.360361 1.90799
upperback 4.02009 0.553521 1.68036
thorax -9.29874 0.371633 0.56461
lowerneck -25.3349 -4.90115 -8.65397
upperneck 22.3914 -5.42928 7.11499
head 12.0051 -2.20683 3.16162
rclavicle -5.56597e-015 -1.74931e-014
rhumerus -22.4248 35.8774 -84.4021
rradius 68.8335
rwrist -0.383143
rhand -38.4134 -37.8227
rfingers 7.12502
rthumb -11.438 -67.4907
lclavicle -5.56597e-015 -1.74931e-014
lhumerus -15.8609 -38.6779 94.438
lradius 70.7766
lwrist 26.0023
lhand -38.9595 28.1385
lfingers 7.12502
lthumb -11.9646 57.7765
rfemur -19.7879 -7.27386 15.7742
rtibia 18.1142
rfoot -11.1839 -15.2202
rtoes -0.583084
lfemur -26.7524 -5.04525 -11.2929
ltibia 25.6585
lfoot -12.7733 -1.8897
ltoes 16.1415
137
root -11.2208 18.196 -16.4146 -167.513 83.8881 -181.626
lowerback 23.3342 -0.310113 1.85506
upperback 3.5936 0.534895 1.7642
thorax -9.06913 0.347305 0.696133
lowerneck -25.0703 -4.96504 -8.70153
upperneck 22.9207 -5.54341 7.13624
head 12.1745 -2.25863 3.17009
rclavicle -1.19271e-014 -3.97569e-015
rhumerus -24.4411 36.1415 -85.4558
rradius 70.3052
rwrist 0.0911744
rhand -38.9467 -38.415
rfingers 7.12502
rthumb -11.9523 -68.0538
lclavicle -1.19271e-014 -3.97569e-015
lhumerus -17.8315 -39.0145 95.3431
lradius 71.8708
lwrist 24.8931
lhand -39.1639 28.2364
lfingers 7.12502
lthumb -12.1617 57.8629
rfemur -17.5573 -6.4123 15.6484
rtibia 16.3619
rfoot -10.8652 -15.915
rtoes -0.371236
lfemur -25.1683 -5.57416 -11.211
ltibia 25.0777
lfoot -13.1776 -1.51663
ltoes 16.4517
138
root -11.1304 18.1985 -16.4277 -167.385 83.9755 -180.824
lowerback 21.9483 -0.25679 1.74872
upperback 3.14053 0.509089 1.84211
thorax -8.83538 0.321641 0.852214
lowerneck -24.7921 -5.04353 -8.73792
upperneck 23.3681 -5.67745 7.1455
head 12.3115 -2.32018 3.16711
rclavicle -4.37326e-015 7.95139e-016
rhumerus -26.3134 36.2042 -86.4208
rradius 71.819
rwrist 0.608271
rhand -38.4163 -39.5174
rfingers 7.12502
rthumb -11.4407 -69.1853
lclavicle -4.37326e-015 7.95139e-016
lhumerus -19.692 -39.2754 96.1844
lradius 72.9868
lwrist 23.9936
lhand -39.3601 28.3309
lfingers 7.12502
lthumb -12.3508 57.9461
rfemur -15.4465 -5.58477 15.5349
rtibia 14.5505
rfoot -10.506 -16.6114
rtoes -0.193568
lfemur -23.7312 -6.2065 -11.1568
ltibia 24.5093
lfoot -13.6533 -1.0388
ltoes 16.6755
139
root -11.0407 18.201 -16.4411 -167.445 84.0464 -180.341
lowerback 20.5229 -0.218475 1.62103
upperback 2.65933 0.462423 1.91199
thorax -8.59967 0.287392 1.01564
lowerneck -24.5311 -5.11732 -8.74709
upperneck 23.7901 -5.79888 7.10566
head 12.4385 -2.37981 3.14241
rclavicle -1.59028e-015 5.24792e-014
rhumerus -28.0523 36.0492 -87.304
rradius 73.3776
rwrist 1.14198
rhand -36.612 -40.9782
rfingers 7.12502
rthumb -9.70032 -70.7349
lclavicle -1.59028e-015 5.24792e-014
lhumerus -21.4537 -39.4083 96.9555
lradius 74.1771
lwrist 23.417
lhand -39.5004 28.3846
lfingers 7.12502
lthumb -12.4861 57.9916
rfemur -13.4277 -4.84018 15.4349
rtibia 12.6296
rfoot -10.0698 -17.281
rtoes -0.193683
lfemur -22.4455 -6.93266 -11.1348
ltibia 23.9504
lfoot -14.1909 -0.463005
ltoes 16.7332
140
root -10.9521 18.2034 -16.4558 -167.642 84.0863 -180.099
lowerback 19.0777 -0.212318 1.50395
upperback 2.15043 0.381642 1.97563
thorax -8.37141 0.237554 1.17272
lowerneck -24.2827 -5.16964 -8.74186
upperneck 24.2379 -5.8781 7.01054
head 12.5722 -2.42615 3.1022
rclavicle 3.18055e-015 2.8625e-014
rhumerus -29.6397 35.6788 -88.1171
rradius 74.9415
rwrist 1.66194
rhand -36.1923 -40.8258
rfingers 7.12502
rthumb -9.29536 -70.6009
lclavicle 3.18055e-015 2.8625e-014
lhumerus -23.1464 -39.3824 97.6725
lradius 75.483
lwrist 23.1733
lhand -39.5716 28.3897
lfingers 7.12502
lthumb -12.5548 57.9925
rfemur -11.4341 -4.21219 15.3483
rtibia 10.5339
rfoot -9.51218 -17.897
rtoes -0.478218
lfemur -21.2925 -7.72722 -11.1466
ltibia 23.4111
lfoot -14.7693 0.179256
ltoes 16.6501
141
root -10.8651 18.205 -16.472 -167.914 84.0925 -179.995
lowerback 17.6544 -0.245774 1.41378
upperback 1.62122 0.262081 2.03697
thorax -8.16538 0.169809 1.31834
lowerneck -24.0438 -5.19231 -8.74823
upperneck 24.7496 -5.89894 6.8783
head 12.7276 -2.45187 3.06171
rclavicle 8.54774e-015 2.22639e-014
rhumerus -31.0485 35.1086 -88.8675
rradius 76.4687
rwrist 2.15759
rhand -36.0805 -40.4204
rfingers 7.12502
rthumb -9.18744 -70.2002
lclavicle 8.54774e-015 2.22639e-014
lhumerus -24.7924 -39.1945 98.3517
lradius 76.9245
lwrist 23.1867
lhand -39.5873 28.3665
lfingers 7.12502
lthumb -12.5699 57.9684
rfemur -9.36727 -4.1689 15.3528
rtibia 8.16053
rfoot -8.79977 -17.9714
rtoes -1.04452
lfemur -20.2366 -8.54868 -11.1898
ltibia 22.9107
lfoot -15.3621 0.838205
ltoes 16.5286
